<svg width="16" height="16" viewBox="0 0 16 16" fill="none" xmlns="http://www.w3.org/2000/svg">
<g clip-path="url(#clip0_1_7)">
<path d="M4.96796 9.74964C4.82969 9.51061 4.52382 9.42893 4.28479 9.5672C4.04576 9.70547 3.96408 10.0113 4.10235 10.2504C4.87967 11.5941 6.33376 12.5 8.00003 12.5C9.66629 12.5 11.1204 11.5941 11.8977 10.2504C12.036 10.0113 11.9543 9.70547 11.7153 9.5672C11.4762 9.42893 11.1704 9.51061 11.0321 9.74964C10.4262 10.7971 9.29489 11.5 8.00003 11.5C6.70516 11.5 5.57388 10.7971 4.96796 9.74964Z" fill="white"/>
<path d="M7 5.11636V5C7 4.44772 6.55228 4 6 4H3.28078C2.63021 4 2.15285 4.61139 2.31063 5.24254L2.62127 6.48507C2.84385 7.3754 3.64382 8 4.56155 8H5C6.05023 8 6.91139 7.19051 6.99358 6.16142C7.25961 6.06436 7.60703 6 8 6C8.39297 6 8.74039 6.06436 9.00642 6.16143C9.08862 7.19051 9.94977 8 11 8H11.4384C12.3562 8 13.1561 7.37541 13.3787 6.48507L13.6894 5.24254C13.8472 4.61139 13.3698 4 12.7192 4H10C9.44771 4 9 4.44772 9 5V5.11636C8.6902 5.04027 8.35055 5 8 5C7.64945 5 7.3098 5.04027 7 5.11636Z" fill="white"/>
<path d="M16 8C16 12.4183 12.4183 16 8 16C3.58172 16 0 12.4183 0 8C0 3.58172 3.58172 0 8 0C12.4183 0 16 3.58172 16 8ZM15 8C15 4.13401 11.866 1 8 1C4.13401 1 1 4.13401 1 8C1 11.866 4.13401 15 8 15C11.866 15 15 11.866 15 8Z" fill="white"/>
</g>
<defs>
<clipPath id="clip0_1_7">
<rect width="16" height="16" fill="white"/>
</clipPath>
</defs>
</svg>
