<svg width="29" height="25" viewBox="0 0 29 25" fill="none" xmlns="http://www.w3.org/2000/svg">
<path d="M26.9316 9.37656H25.9583V9.33333H15.0833V13.5H21.9122C20.916 15.9255 18.2389 17.6667 15.0833 17.6667C11.0795 17.6667 7.83333 14.8682 7.83333 11.4167C7.83333 7.9651 11.0795 5.16667 15.0833 5.16667C16.9315 5.16667 18.6129 5.76771 19.8931 6.74948L23.3109 3.80313C21.1528 2.06927 18.2661 1 15.0833 1C8.41031 1 3 5.66406 3 11.4167C3 17.1693 8.41031 21.8333 15.0833 21.8333C21.7564 21.8333 27.1667 17.1693 27.1667 11.4167C27.1667 10.7182 27.0833 10.0365 26.9316 9.37656Z" fill="#FFC107"/>
<path d="M4.39258 6.56823L8.36256 9.07813C9.43677 6.78542 12.0383 5.16667 15.0827 5.16667C16.9308 5.16667 18.6122 5.76771 19.8925 6.74948L23.3102 3.80313C21.1522 2.06927 18.2655 1 15.0827 1C10.4415 1 6.41654 3.25885 4.39258 6.56823Z" fill="#FF3D00"/>
<path d="M15.0834 21.8335C18.2045 21.8335 21.0404 20.8038 23.1846 19.1294L19.4448 16.4012C18.2317 17.1934 16.7237 17.6669 15.0834 17.6669C11.9405 17.6669 9.27188 15.9393 8.26655 13.5283L4.32617 16.1455C6.32596 19.5189 10.3872 21.8335 15.0834 21.8335Z" fill="#4CAF50"/>
<path d="M26.9323 9.37721H25.959V9.33398H15.084V13.5007H21.9129C21.4344 14.6658 20.565 15.6704 19.4437 16.4022L19.4455 16.4012L23.1853 19.1293C22.9206 19.3366 27.1673 16.6257 27.1673 11.4173C27.1673 10.7189 27.0839 10.0371 26.9323 9.37721Z" fill="#1976D2"/>
</svg>
