<svg width="16" height="16" viewBox="0 0 16 16" fill="none" xmlns="http://www.w3.org/2000/svg">
<path d="M10 9.05001C11.3807 9.05001 12.5 7.93072 12.5 6.55001C12.5 5.1693 11.3807 4.05001 10 4.05001C8.6193 4.05001 7.50002 5.1693 7.50002 6.55001C7.50002 7.93072 8.6193 9.05001 10 9.05001Z" fill="white"/>
<path d="M2 1C0.895431 1 0 1.89543 0 3V12C0 13.1046 0.895431 14 2 14H14C15.1046 14 16 13.1046 16 12V3C16 1.89543 15.1046 1 14 1H2ZM1 3C1 2.44772 1.44772 2 2 2H4V4H1V3ZM5 13V2H14C14.5523 2 15 2.44772 15 3V12C15 12.2852 14.8806 12.5425 14.6891 12.7247C14.1514 11.4939 12.8227 10 10 10C6.96283 10 5.65523 11.7296 5.20172 13H5ZM1 11H4V13H2C1.44772 13 1 12.5523 1 12V11ZM4 10H1V8H4V10ZM4 7H1V5H4V7Z" fill="white"/>
</svg>
