<svg width="16" height="16" viewBox="0 0 16 16" fill="none" xmlns="http://www.w3.org/2000/svg">
<path fill-rule="evenodd" clip-rule="evenodd" d="M8 1C5.79086 1 4 2.79086 4 5C4 7.20914 5.79086 9 8 9C10.2091 9 12 7.20914 12 5C12 2.79086 10.2091 1 8 1ZM3 5C3 2.23858 5.23858 0 8 0C10.7614 0 13 2.23858 13 5C13 7.59267 11.0267 9.72445 8.5 9.97531V12H10.5C10.7761 12 11 12.2239 11 12.5C11 12.7761 10.7761 13 10.5 13H8.5V15.5C8.5 15.7761 8.27614 16 8 16C7.72386 16 7.5 15.7761 7.5 15.5V13H5.5C5.22386 13 5 12.7761 5 12.5C5 12.2239 5.22386 12 5.5 12H7.5V9.97531C4.97334 9.72445 3 7.59267 3 5Z" fill="white"/>
</svg>
